<?xml version="1.0" encoding="utf-8"?>
<!-- Generator: Adobe Illustrator 16.0.0, SVG Export Plug-In . SVG Version: 6.00 Build 0)  -->
<!DOCTYPE svg PUBLIC "-//W3C//DTD SVG 1.1//EN" "http://www.w3.org/Graphics/SVG/1.1/DTD/svg11.dtd">
<svg version="1.1" id="Layer_1" xmlns="http://www.w3.org/2000/svg" xmlns:xlink="http://www.w3.org/1999/xlink" x="0px" y="0px"
	 width="101.622px" height="101.622px" viewBox="0 0 101.622 101.622" enable-background="new 0 0 101.622 101.622"
	 xml:space="preserve">
<g>
	<rect fill="#55BDD5" width="101.622" height="101.622"/>
	<g>
		<rect x="13.976" y="46.69" fill="#FFFFFF" width="44.267" height="6.93"/>
		<rect x="20.547" y="49.327" fill="#FFFFFF" width="6.93" height="16.754"/>
		<rect x="30.268" y="49.327" fill="#FFFFFF" width="6.93" height="12.203"/>
		<path fill="#FFFFFF" d="M71.303,67.149c9.021,0,16.344-7.31,16.344-16.344c0-9.023-7.322-16.332-16.344-16.332
			c-9.022,0-16.344,7.309-16.344,16.332C54.959,59.84,62.28,67.149,71.303,67.149z M71.303,40.679
			c5.596,0,10.139,4.529,10.139,10.127c0,5.596-4.543,10.139-10.139,10.139c-5.597,0-10.139-4.543-10.139-10.139
			C61.164,45.208,65.706,40.679,71.303,40.679z"/>
	</g>
</g>
</svg>
