<?xml version="1.0" encoding="utf-8"?>
<!-- Generator: Adobe Illustrator 16.0.0, SVG Export Plug-In . SVG Version: 6.00 Build 0)  -->
<!DOCTYPE svg PUBLIC "-//W3C//DTD SVG 1.1//EN" "http://www.w3.org/Graphics/SVG/1.1/DTD/svg11.dtd">
<svg version="1.1" id="Layer_1" xmlns="http://www.w3.org/2000/svg" xmlns:xlink="http://www.w3.org/1999/xlink" x="0px" y="0px"
	 width="101.667px" height="101.667px" viewBox="0 0 101.667 101.667" enable-background="new 0 0 101.667 101.667"
	 xml:space="preserve">
<g>
	<rect x="0.022" y="0.022" fill="#E77E33" width="101.622" height="101.622"/>
	<g>
		<path fill="#FFFFFF" d="M45.592,47.809l-0.02,0.069c0-0.029,0-0.05-0.011-0.08L45.592,47.809z"/>
		<path fill="#FFFFFF" d="M45.572,47.878c0-0.029,0-0.05-0.011-0.08c-0.89-7.96-4.45-16.029-10.67-17.84
			c-9.38-2.72-21.26,9.83-23.99,19.21c-2.72,9.38,2.341,20.38,11.721,23.101c9.38,2.72,19.529-3.87,22.25-13.25
			C45.782,55.878,46.012,51.898,45.572,47.878z M33.812,33.668c4.75,1.38,7.61,7.16,8.601,13.221l-22.931-6.65
			C23.552,35.648,29.072,32.288,33.812,33.668z M23.691,68.568c-5.699-1.66-9.46-7.01-10.149-12.82l25.58,7.42
			C35.441,67.698,29.392,70.219,23.691,68.568z M42.052,57.628c-0.31,1.051-0.72,2.061-1.24,3.021l-27.34-7.94
			c0.08-1.08,0.271-2.149,0.57-3.2c0.63-2.18,1.87-4.569,3.479-6.829l25.24,7.319C42.922,52.769,42.682,55.448,42.052,57.628z"/>
		<path fill="#FFFFFF" d="M80.722,39.969c-8.64-4.54-25.92-4.69-30.47,3.96c-4.55,8.64,5.37,22.8,14.01,27.35
			c8.65,4.54,20.44,1.8,24.98-6.85C93.792,55.788,89.372,44.519,80.722,39.969z M57.252,61.118c-3.69-4.92-5.88-11.01-3.58-15.39
			s8.57-6.021,14.71-5.771L57.252,61.118z M62.412,66.438c-1.07-0.84-2.141-1.82-3.141-2.91l12.23-23.28
			c1.47,0.21,2.88,0.53,4.18,0.94L62.412,66.438z M64.832,68.059l13.56-25.79c0.141,0.06,0.28,0.13,0.41,0.2
			c0.95,0.5,1.84,1.1,2.66,1.779l-13.25,25.21c-1.03-0.279-2.04-0.68-2.99-1.18C65.092,68.208,64.962,68.139,64.832,68.059z
			 M85.832,62.639c-2.771,5.26-8.8,7.869-14.63,7.359l12.399-23.59C87.332,50.929,88.602,57.378,85.832,62.639z"/>
		<circle fill="#FFFFFF" cx="28.437" cy="51.655" r="3.568"/>
		
			<ellipse transform="matrix(0.9605 0.2783 -0.2783 0.9605 16.6575 -8.4388)" fill="#FFFFFF" cx="38.047" cy="54.442" rx="3.18" ry="3.568"/>
		
			<ellipse transform="matrix(0.9605 0.2784 -0.2784 0.9605 14.4046 -3.429)" fill="#FFFFFF" cx="19.274" cy="48.998" rx="3.179" ry="3.569"/>
	</g>
</g>
</svg>
