<?xml version="1.0" encoding="utf-8"?>
<!-- Generator: Adobe Illustrator 16.0.0, SVG Export Plug-In . SVG Version: 6.00 Build 0)  -->
<!DOCTYPE svg PUBLIC "-//W3C//DTD SVG 1.1//EN" "http://www.w3.org/Graphics/SVG/1.1/DTD/svg11.dtd">
<svg version="1.1" id="Layer_1" xmlns="http://www.w3.org/2000/svg" xmlns:xlink="http://www.w3.org/1999/xlink" x="0px" y="0px"
	 width="101.622px" height="101.622px" viewBox="0 0 101.622 101.622" enable-background="new 0 0 101.622 101.622"
	 xml:space="preserve">
<g>
	<rect fill="#94499C" width="101.622" height="101.622"/>
	<g>
		<path fill="#FFFFFF" d="M67.322,40.962c-2.445,6.752-8.91,11.566-16.518,11.566c-7.582,0-14.061-4.814-16.518-11.566H67.322z"/>
		<path fill="#FFFFFF" d="M68.389,34.957c0,1.056-0.094,2.079-0.273,3.079H33.506c-0.18-1-0.273-2.023-0.273-3.079
			c0-9.714,7.868-17.583,17.573-17.583C60.52,17.374,68.389,25.243,68.389,34.957z"/>
		<path fill="#FFFFFF" d="M59.764,52.788L54.8,84.249h-7.967l-4.964-31.461h0.012c2.619,1.539,5.672,2.434,8.924,2.434
			c3.276,0,6.328-0.895,8.934-2.434H59.764z"/>
	</g>
</g>
</svg>
