<?xml version="1.0" encoding="utf-8"?>
<!-- Generator: Adobe Illustrator 16.0.0, SVG Export Plug-In . SVG Version: 6.00 Build 0)  -->
<!DOCTYPE svg PUBLIC "-//W3C//DTD SVG 1.1//EN" "http://www.w3.org/Graphics/SVG/1.1/DTD/svg11.dtd">
<svg version="1.1" id="Layer_1" xmlns="http://www.w3.org/2000/svg" xmlns:xlink="http://www.w3.org/1999/xlink" x="0px" y="0px"
	 width="101.622px" height="101.622px" viewBox="0 0 101.622 101.622" enable-background="new 0 0 101.622 101.622"
	 xml:space="preserve">
<g>
	<rect fill="#4554A5" width="101.622" height="101.621"/>
	<g>
		<path fill="#FFFFFF" d="M42.021,80.688H11.711l8.646-37.094c1.736,1.191,3.834,1.898,6.117,1.898c2.357,0,4.529-0.756,6.305-2.037
			h0.545L42.021,80.688z"/>
		<circle fill="#FFFFFF" cx="26.476" cy="31.689" r="10.755"/>
		<path fill="#FFFFFF" d="M65.967,80.688H35.656l8.646-37.094c1.736,1.191,3.834,1.898,6.117,1.898c2.357,0,4.529-0.756,6.305-2.037
			h0.545L65.967,80.688z"/>
		<circle fill="#FFFFFF" cx="50.421" cy="31.689" r="10.755"/>
		<path fill="#FFFFFF" d="M89.912,80.688H59.602l8.645-37.094c1.738,1.191,3.836,1.898,6.119,1.898c2.359,0,4.529-0.756,6.305-2.037
			h0.547L89.912,80.688z"/>
		<circle fill="#FFFFFF" cx="74.366" cy="31.689" r="10.755"/>
	</g>
</g>
</svg>
