<?xml version="1.0" encoding="utf-8"?>
<!-- Generator: Adobe Illustrator 16.0.0, SVG Export Plug-In . SVG Version: 6.00 Build 0)  -->
<!DOCTYPE svg PUBLIC "-//W3C//DTD SVG 1.1//EN" "http://www.w3.org/Graphics/SVG/1.1/DTD/svg11.dtd">
<svg version="1.1" id="Layer_1" xmlns="http://www.w3.org/2000/svg" xmlns:xlink="http://www.w3.org/1999/xlink" x="0px" y="0px"
	 width="101.667px" height="101.667px" viewBox="0 0 101.667 101.667" enable-background="new 0 0 101.667 101.667"
	 xml:space="preserve">
<g>
	<rect x="0.022" y="0.022" fill="#66499D" width="101.622" height="101.622"/>
	<g>
		<g>
			<path fill="#FFFFFF" d="M68.11,43.252c-8.95-3.9-16.89-5.511-20.8,3.439c-3.9,8.96-3.78,28.49,5.17,32.391
				c8.95,3.909,23.34-9.29,27.25-18.24S77.061,47.151,68.11,43.252z M58.36,50.832c1.93,0.84,3.22,2.439,3.42,4.01
				c-1.3,0.92-3.33,1.05-5.26,0.21c-1.92-0.84-3.2-2.42-3.41-3.99C54.4,50.132,56.44,49.991,58.36,50.832z M66.11,67.182
				c-1.51,3.45-6.17,4.75-9.63,3.24s-5.62-5.78-4.11-9.24c0.04-0.09,0.09-0.19,0.141-0.28l0.039,0.021
				c0.41,2.62,2.681,5.229,5.29,6.37c2.62,1.149,6.141,1.06,8.33-0.42l0.051,0.01C66.19,66.981,66.15,67.082,66.11,67.182z
				 M68,60.052c-1.92-0.83-3.2-2.41-3.41-3.98c1.29-0.93,3.33-1.069,5.25-0.229c1.931,0.84,3.221,2.43,3.41,4.01
				C71.96,60.762,69.931,60.901,68,60.052z"/>
		</g>
		<g>
			<path fill="#FFFFFF" d="M55.75,30.571c-1.97-9.569-10.069-9.64-19.63-7.67c-9.57,1.96-16.979,5.24-15.02,14.811
				c1.859,8.979,11.319,23.109,20.47,23.489c-0.23-4.649,0.83-9.319,1.84-13.229c-0.62,0-1.229,0.05-1.82,0.17
				c-2.79,0.57-5.619,2.68-6.55,5.15l-0.05,0.02c-0.04-0.1-0.07-0.21-0.08-0.3c-0.77-3.7,2.3-7.45,5.98-8.21
				c1.159-0.23,2.37-0.18,3.51,0.13c0.08-0.17,0.14-0.35,0.22-0.51c2.62-5.24,6.42-7.41,11.61-7.57
				C56.38,34.102,56.181,32.691,55.75,30.571z M33.45,39.222c-2.05,0.42-4.01-0.13-5.09-1.3c0.52-1.5,2.11-2.79,4.16-3.21
				c2.06-0.431,4.029,0.13,5.1,1.31C37.09,37.512,35.511,38.792,33.45,39.222z M45.71,36.691c-2.05,0.42-4.01-0.13-5.09-1.29
				c0.521-1.5,2.11-2.79,4.16-3.22c2.06-0.42,4.04,0.14,5.11,1.31C49.36,34.991,47.771,36.271,45.71,36.691z"/>
		</g>
	</g>
</g>
</svg>
