<?xml version="1.0" encoding="utf-8"?>
<!-- Generator: Adobe Illustrator 16.0.0, SVG Export Plug-In . SVG Version: 6.00 Build 0)  -->
<!DOCTYPE svg PUBLIC "-//W3C//DTD SVG 1.1//EN" "http://www.w3.org/Graphics/SVG/1.1/DTD/svg11.dtd">
<svg version="1.1" id="Layer_1" xmlns="http://www.w3.org/2000/svg" xmlns:xlink="http://www.w3.org/1999/xlink" x="0px" y="0px"
	 width="101.667px" height="101.667px" viewBox="0 0 101.667 101.667" enable-background="new 0 0 101.667 101.667"
	 xml:space="preserve">
<g>
	<rect x="0.022" y="0.022" fill="#F19731" width="101.623" height="101.622"/>
	<path fill="#FFFFFF" d="M80.938,76.959c0-0.061-0.041-0.11-0.07-0.16L50.839,20.528L20.718,76.959c-0.049,0.08-0.07,0.17-0.07,0.25
		c0,2.18,13.521,3.93,30.191,3.93s30.18-1.75,30.18-3.93C81.019,77.129,81.009,77.039,80.938,76.959z M58.538,58.059l-3.49-2.79
		v20.58h-2.9v-22.91l-2.568-2.05c-1.592,1.021-3.711,0.97-5.271-0.27c-1.949-1.561-2.27-4.41-0.719-6.36
		c1.559-1.96,4.41-2.28,6.369-0.72c1.561,1.239,2.08,3.31,1.43,5.09l8.961,7.17L58.538,58.059z"/>
</g>
</svg>
