<?xml version="1.0" encoding="utf-8"?>
<!-- Generator: Adobe Illustrator 16.0.0, SVG Export Plug-In . SVG Version: 6.00 Build 0)  -->
<!DOCTYPE svg PUBLIC "-//W3C//DTD SVG 1.1//EN" "http://www.w3.org/Graphics/SVG/1.1/DTD/svg11.dtd">
<svg version="1.1" id="Layer_1" xmlns="http://www.w3.org/2000/svg" xmlns:xlink="http://www.w3.org/1999/xlink" x="0px" y="0px"
	 width="101.667px" height="101.667px" viewBox="0 0 101.667 101.667" enable-background="new 0 0 101.667 101.667"
	 xml:space="preserve">
<g>
	<rect x="0.022" y="0.022" fill="#EA5433" width="101.622" height="101.622"/>
	<g>
		<path fill="#FFFFFF" d="M54.452,40.52c-11.604,0-21,9.396-21,21c0,11.604,9.396,21,21,21c11.604,0,21-9.396,21-21
			C75.452,49.916,66.057,40.52,54.452,40.52z M41.396,47.527c0,0,1.633-0.6,3.96-0.768l-0.588,3.912l-4.476,0.78L41.396,47.527z
			 M39.333,56.049l5.1-0.529l-0.276,5.977l-5.171-0.072c0,0-0.037-1.236,0.071-2.796C39.152,57.309,39.333,56.049,39.333,56.049z
			 M35.612,56c0.145-1.213,0.721-2.796,0.721-2.796c0.635-0.096,2.7-0.696,2.7-0.696c-0.181,1.297-0.504,3.12-0.504,3.12
			C37.148,55.76,35.612,56,35.612,56z M39.452,73.316c0,0-0.623-1.464-0.899-4.093c0,0,2.411,0.504,4.836,0.841l0.323,4.415
			C43.712,74.479,40.101,73.483,39.452,73.316z M48.297,69.644l-4.404-0.287l-0.169-4.008l4.585,0.19L48.297,69.644z M48.104,61.568
			l0.264-6.145l4.465-0.119l0.048,6.215L48.104,61.568z M63.885,53.372l-0.792,5.7l-0.792-5.7l-5.688-0.792l5.688-0.793l0.792-5.687
			l0.792,5.687l5.688,0.793L63.885,53.372z"/>
		<rect x="52.084" y="19.146" fill="#FFFFFF" width="3.476" height="18.935"/>
		<polygon fill="#FFFFFF" points="36.272,24.265 38.257,32.337 46.33,34.324 38.257,36.31 36.272,44.381 34.286,36.31 
			26.214,34.324 34.286,32.337 		"/>
	</g>
</g>
</svg>
