<?xml version="1.0" encoding="utf-8"?>
<!-- Generator: Adobe Illustrator 16.0.0, SVG Export Plug-In . SVG Version: 6.00 Build 0)  -->
<!DOCTYPE svg PUBLIC "-//W3C//DTD SVG 1.1//EN" "http://www.w3.org/Graphics/SVG/1.1/DTD/svg11.dtd">
<svg version="1.1" id="Layer_1" xmlns="http://www.w3.org/2000/svg" xmlns:xlink="http://www.w3.org/1999/xlink" x="0px" y="0px"
	 width="101.622px" height="101.622px" viewBox="0 0 101.622 101.622" enable-background="new 0 0 101.622 101.622"
	 xml:space="preserve">
<g>
	<rect fill="#58AF4F" width="101.622" height="101.621"/>
	<g>
		<rect x="72.142" y="49.203" fill="#FFFFFF" width="12.09" height="2.895"/>
		
			<rect x="70.034" y="26.573" transform="matrix(0.6427 0.7661 -0.7661 0.6427 50.5299 -43.1095)" fill="#FFFFFF" width="2.896" height="12.09"/>
		
			<rect x="53.306" y="17.068" transform="matrix(0.9847 0.174 -0.174 0.9847 4.8575 -9.1754)" fill="#FFFFFF" width="2.896" height="12.09"/>
		
			<rect x="34.384" y="20.541" transform="matrix(0.8662 -0.4996 0.4996 0.8662 -8.4899 21.4576)" fill="#FFFFFF" width="2.893" height="12.087"/>
		
			<rect x="22.119" y="35.364" transform="matrix(0.3428 -0.9394 0.9394 0.3428 -23.4116 49.3506)" fill="#FFFFFF" width="2.894" height="12.088"/>
		<polygon fill="#FFFFFF" points="28.885,57.219 29.873,59.938 18.512,64.074 17.521,61.35 		"/>
		
			<rect x="34.718" y="69.252" transform="matrix(-0.8658 -0.5003 0.5003 -0.8658 29.8046 158.5882)" fill="#FFFFFF" width="2.896" height="12.091"/>
		
			<rect x="53.687" y="72.464" transform="matrix(-0.9849 0.1732 -0.1732 -0.9849 123.0392 146.2783)" fill="#FFFFFF" width="2.897" height="12.09"/>
		
			<rect x="70.283" y="62.729" transform="matrix(-0.6431 0.7658 -0.7658 -0.6431 170.5281 58.0722)" fill="#FFFFFF" width="2.897" height="12.09"/>
		<circle fill="#FFFFFF" cx="50.683" cy="51.154" r="17.685"/>
	</g>
</g>
</svg>
